<?xml version="1.0" encoding="UTF-8"?>
<svg width="400px" height="84px" viewBox="0 0 400 84" version="1.1" xmlns="http://www.w3.org/2000/svg" xmlns:xlink="http://www.w3.org/1999/xlink">
    <!-- Generator: Sketch 62 (91390) - https://sketch.com -->
    <title>Artboard</title>
    <desc>Created with Sketch.</desc>
    <g id="Artboard" stroke="none" stroke-width="1" fill="none" fill-rule="evenodd">
        <g id="Logo">
            <g fill="#173A56" font-family="LeagueSpartan-Bold, League Spartan" font-size="56" font-weight="bold" id="AppBasky">
                <text>
                    <tspan x="104.88" y="64">AppBasky</tspan>
                </text>
            </g>
            <g id="logo" fill="#FF9900" fill-rule="nonzero">
                <g id="infinity" transform="translate(0.000000, 16.000000)">
                    <path d="M51.6796875,0 L51.6794798,12.0461096 C58.0219434,7.90886962 65.242398,8.20818662 70.5079922,10.234875 C77.0173359,12.7404375 83.9726016,19.2079453 83.9726016,29.8455938 C83.9726016,40.4832422 77.0173359,46.95075 70.5079922,49.4563125 C63.9988125,51.9620391 54.5020547,51.8271797 47.3694375,43.9351172 L47.3694375,43.9351172 L42.164,37.714 L42.1640625,51.6328125 L32.3203125,51.6328125 L32.3204861,47.6271695 C25.9713338,51.783015 18.7376555,51.4857754 13.4647734,49.4563125 C6.95559375,46.95075 5.0060045e-12,40.4830781 5.0060045e-12,29.8454297 C5.0060045e-12,19.2079453 6.95542969,12.7404375 13.4646094,10.2350391 C19.9741172,7.72947656 29.470875,7.86417187 36.6033281,15.7562344 L36.6033281,15.7562344 L41.835,22.009 L41.8359375,0 L51.6796875,0 Z M21.2077031,18.6173203 C18.6867188,18.6173203 15.9736172,19.5534609 13.9505625,21.1217344 C12.0718828,22.5777891 9.83259375,25.2733359 9.83259375,29.8455938 C9.83259375,34.4176875 12.0718828,37.1132344 13.9505625,38.5692891 C15.9737813,40.1373984 18.6867188,41.0737031 21.2077031,41.0737031 C24.3012656,41.0737031 27.1024688,39.7835156 29.3086172,37.3424297 L29.3086172,37.3424297 L32.3157188,33.7068047 L32.32,33.712 L32.3203125,33.6328125 L38.749,33.632 L29.3086172,22.3485938 C27.184178,19.9979184 24.5079459,18.7144685 21.5502138,18.6226226 Z M62.7652266,18.6171563 C59.6716641,18.6171563 56.8704609,19.9075078 54.6643125,22.3484297 L54.6643125,22.3484297 L51.679,25.956 L51.6796875,26.0039062 L45.177,26.003 L54.6643125,37.3422656 C56.7887517,39.692941 59.4651359,40.9763909 62.4227328,41.0682367 L62.7652266,41.0735391 C65.2862109,41.0735391 67.9991484,40.1372344 70.0222031,38.569125 C71.9010469,37.1130703 74.1403359,34.4175234 74.1403359,29.8454297 C74.1403359,25.2731719 71.9008828,22.577625 70.0223672,21.1215703 C67.9991484,19.5534609 65.2862109,18.6171563 62.7652266,18.6171563 Z" id="Combined-Shape"></path>
                    <path d="M21.2075391,23.5391953 C19.4126953,23.5391953 14.7543047,24.6722109 14.7543047,29.8455938 C14.7543047,31.9155703 15.4983281,33.5419219 16.9657031,34.6792031 C18.3664687,35.7649688 20.0753437,36.1518281 21.2075391,36.1518281 C22.9032891,36.1518281 24.3480234,35.4739219 25.622625,34.0800469 L29.1232266,29.8455938 L25.622625,25.6113047 C24.3481875,24.2171016 22.9034531,23.5391953 21.2075391,23.5391953 Z" id="Path"></path>
                    <path d="M62.7650625,36.1518281 C64.5599063,36.1518281 69.2182969,35.0189766 69.2182969,29.8455938 C69.2182969,27.7754531 68.4742734,26.1492656 67.0068984,25.0118203 C65.6061328,23.9260547 63.8970938,23.5391953 62.7650625,23.5391953 C61.0693125,23.5391953 59.6244141,24.2171016 58.3498125,25.6111406 L54.8492109,29.8455938 L58.3498125,34.0800469 C59.6245781,35.4739219 61.0693125,36.1518281 62.7650625,36.1518281 Z" id="Path"></path>
                </g>
            </g>
        </g>
    </g>
</svg>